<svg xmlns="http://www.w3.org/2000/svg" xmlns:xlink="http://www.w3.org/1999/xlink" viewBox="0 0 95.48100000000001 90.99399685667689" height="90.99399685667689" width="95.48100000000001" data-background-color="#000000" preserveAspectRatio="xMidYMid meet" id="tight-bounds"><g><svg viewBox="0 0 95.48100000000001 90.99399685667689" height="90.99399685667689" width="95.48100000000001"><g><svg viewBox="0 0 95.48100000000001 90.99399685667689" height="90.99399685667689" width="95.48100000000001"><g id="textblocktransform"><svg viewBox="0 0 95.48100000000001 90.99399685667689" height="90.99399685667689" width="95.48100000000001" id="textblock"><g><svg viewBox="0 0 95.48100000000001 90.99399685667689" height="90.99399685667689" width="95.48100000000001"><g><svg viewBox="0 0 95.48100000000001 90.99399685667689" height="90.99399685667689" width="95.48100000000001"><g><svg xmlns="http://www.w3.org/2000/svg" xmlns:xlink="http://www.w3.org/1999/xlink" version="1.1" x="0" y="0" viewBox="2.523167610168457 4.699999809265137 95.06758117675781 90.60000610351562" enable-background="new 0 0 100 100" xml:space="preserve" height="90.99399685667689" width="95.48100000000001" class="icon-icon-0" data-fill-palette-color="accent" id="icon-0"/></g></svg></g></svg></g></svg></g></svg></g></svg><mask id="5ca6d350-c76c-4050-8cf2-6199f3da899b"><svg xmlns:xlink="http://www.w3.org/1999/xlink" viewBox="0 0 95.48100000000001 90.99399685667689" height="90.99399685667689" width="95.48100000000001" data-background-color="#000000" preserveAspectRatio="xMidYMid meet" id="SvgjsSvg1127"><g><svg viewBox="0 0 95.48100000000001 90.99399685667689" height="90.99399685667689" width="95.48100000000001"><g><svg viewBox="0 0 95.48100000000001 90.99399685667689" height="90.99399685667689" width="95.48100000000001"><g id="SvgjsG1126"><svg viewBox="0 0 95.48100000000001 90.99399685667689" height="90.99399685667689" width="95.48100000000001" id="SvgjsSvg1125"><g><svg viewBox="0 0 95.48100000000001 90.99399685667689" height="90.99399685667689" width="95.48100000000001"><g><svg viewBox="0 0 95.48100000000001 90.99399685667689" height="90.99399685667689" width="95.48100000000001"><g><svg xmlns="http://www.w3.org/2000/svg" xmlns:xlink="http://www.w3.org/1999/xlink" version="1.1" x="0" y="0" viewBox="2.523167610168457 4.699999809265137 95.06758117675781 90.60000610351562" enable-background="new 0 0 100 100" xml:space="preserve" height="90.99399685667689" width="95.48100000000001" class="icon-icon-0" data-fill-palette-color="accent" id="SvgjsSvg1124"><path d="M50 52.7C40.1 52.7 32 44.6 32 34.7S40.1 16.7 50 16.7 68 24.8 68 34.7 59.9 52.7 50 52.7M50 23.8C44 23.8 39.1 28.7 39.1 34.7S44 45.6 50 45.6 60.9 40.7 60.9 34.7 56 23.8 50 23.8" fill="white"/><path d="M74.3 64.6L50 82.2 25.7 64.6C30.8 59.8 39.8 56.6 50 56.6S69.2 59.8 74.3 64.6" fill="white"/><path d="M50 95.3C49.3 95.3 48.5 95.1 47.9 94.6L4 62.7C2.8 61.8 2.2 60.2 2.7 58.7L19.5 7.1C20 5.6 21.3 4.7 22.9 4.7H77.2C78.7 4.7 80.1 5.7 80.6 7.1L97.4 58.8C97.9 60.3 97.4 61.9 96.1 62.8L52.1 94.7C51.5 95.1 50.7 95.3 50 95.3M10.2 58.5L50 87.4 89.8 58.5 74.6 11.7H25.4z" fill="white"/></svg></g></svg></g></svg></g></svg></g></svg></g></svg></g><defs><mask/></defs></svg></mask><linearGradient x1="0.054" x2="0.941" y1="0.5" y2="0.5" id="1458ca1c-99bb-4728-ac1e-0281cb366fe0"><stop stop-color="#0f3054" offset="0"/><stop stop-color="#3b8dcb" offset="0.498"/><stop stop-color="#0f3054" offset="1"/></linearGradient><rect width="95.48100000000001" height="90.99399685667689" fill="url(#1458ca1c-99bb-4728-ac1e-0281cb366fe0)" mask="url(#5ca6d350-c76c-4050-8cf2-6199f3da899b)" data-fill-palette-color="accent"/></g><defs><mask/></defs></svg>